<svg width="53" height="53" viewBox="0 0 53 53" fill="none" xmlns="http://www.w3.org/2000/svg">
<path d="M38.8309 41.5597L48.6739 24.4986C50.597 21.1653 48.1912 17 44.343 17L26 17H24.6571C20.8088 17 18.4031 21.1653 20.3261 24.4986L27 36.0667L30.1691 41.5597C32.0932 44.8949 36.9068 44.8949 38.8309 41.5597Z" fill="black"/>
<path d="M14.1691 11.5069L4.32612 28.568C2.40305 31.9014 4.80876 36.0667 8.65705 36.0667L27 36.0667L20.3261 24.4986C18.4031 21.1653 20.8088 17 24.6571 17H26L22.8309 11.5069C20.9068 8.17176 16.0932 8.17176 14.1691 11.5069Z" fill="black"/>
<path d="M26 17L22.8309 11.5069C20.9068 8.17176 16.0932 8.17176 14.1691 11.5069L4.32612 28.568C2.40305 31.9014 4.80876 36.0667 8.65705 36.0667L27 36.0667M26 17L44.343 17C48.1912 17 50.597 21.1653 48.6739 24.4986L38.8309 41.5597C36.9068 44.8949 32.0932 44.8949 30.1691 41.5597L27 36.0667M26 17H24.6571C20.8088 17 18.4031 21.1653 20.3261 24.4986L27 36.0667" stroke="white" stroke-width="2" stroke-linecap="round" stroke-linejoin="round"/>
</svg>
